<?xml version="1.0" encoding="utf-8"?>

<!DOCTYPE svg PUBLIC "-//W3C//DTD SVG 1.1//EN" "http://www.w3.org/Graphics/SVG/1.1/DTD/svg11.dtd">

<!-- Made by Christian Veigt -->
<svg fill="#000000" version="1.1" id="Layer_1" xmlns="http://www.w3.org/2000/svg" xmlns:xlink="http://www.w3.org/1999/xlink" 
	 width="800px" height="800px" viewBox="0 0 100 100" enable-background="new 0 0 100 100" xml:space="preserve">
<g>
	<path d="M46.792,38.092c3.646-1.836,5.251-4.287,5.542-8.463c0.291-4.169-1.943-8.833-5.313-11.09
		c-1.693-1.134-3.798-1.733-6.088-1.733c-5.571,0-11.034,3.423-12.706,7.964c-1.102,3.001-1,6.215-0.821,8.925
		c0.017,0.515,0.476,12.757,6.557,24.831l0.222,0.439c6.082,12.076,15.645,19.73,15.998,20.008c2.013,1.706,4.517,3.828,7.624,4.741
		c0.887,0.26,1.831,0.392,2.809,0.392c5.949,0,13.11-5.157,13.427-11.807c0.193-4.065-2.214-8.642-5.724-10.881
		c-1.999-1.276-3.679-1.846-5.445-1.846c-1.469,0-2.945,0.398-4.643,1.255c-0.463,0.232-0.89,0.346-1.305,0.346
		c-2.887,0-5.695-5.674-7.205-8.723l-1.264-2.511c-1.47-2.871-3.932-7.678-3.071-10.314C45.605,38.952,46.052,38.465,46.792,38.092z
		 M44.896,51.763l1.24,2.462c2.158,4.36,5.418,10.948,10.79,10.948c1.04,0,2.084-0.26,3.104-0.773
		c2.428-1.224,3.689-1.173,6.137,0.391c2.301,1.468,4.006,4.683,3.881,7.319c-0.188,3.96-4.949,7.996-9.432,7.996
		c-0.598,0-1.164-0.077-1.682-0.229c-2.295-0.674-4.351-2.417-6.215-3.996c-0.093-0.073-9.291-7.455-14.961-18.714l-0.222-0.439
		c-5.67-11.259-6.127-23.045-6.135-23.228c-0.155-2.367-0.251-5.083,0.581-7.349c1.085-2.947,5.101-5.345,8.951-5.345
		c1.494,0,2.83,0.365,3.862,1.058c2.181,1.46,3.74,4.749,3.549,7.487c-0.195,2.799-0.947,3.958-3.352,5.169
		c-1.706,0.859-2.853,2.159-3.41,3.865C40.206,42.604,43.028,48.115,44.896,51.763z"/>
</g>
</svg>